<?xml version="1.0" encoding="UTF-8" standalone="no"?>
<!DOCTYPE svg PUBLIC "-//W3C//DTD SVG 1.1//EN"
 "http://www.w3.org/Graphics/SVG/1.1/DTD/svg11.dtd">
<!-- Generated by graphviz version 2.47.3 (20210619.1520)
 -->
<!-- Title: dependencies Pages: 1 -->
<svg width="488pt" height="174pt"
 viewBox="0.00 0.00 488.00 173.80" xmlns="http://www.w3.org/2000/svg" xmlns:xlink="http://www.w3.org/1999/xlink">
<g id="graph0" class="graph" transform="scale(1 1) rotate(0) translate(4 169.8)">
<title>dependencies</title>
<polygon fill="white" stroke="transparent" points="-4,4 -4,-169.8 484,-169.8 484,4 -4,4"/>
<text text-anchor="middle" x="240" y="-8.2" font-family="sans-serif" font-size="14.00">dependencies</text>
<g id="clust1" class="cluster">
<title>cluster_HomePageModule</title>
<polygon fill="none" stroke="black" stroke-dasharray="1,5" points="8,-32.8 8,-157.8 472,-157.8 472,-32.8 8,-32.8"/>
</g>
<g id="clust2" class="cluster">
<title>cluster_HomePageModule_declarations</title>
<polygon fill="none" stroke="black" points="206,-40.8 206,-92.8 464,-92.8 464,-40.8 206,-40.8"/>
</g>
<g id="clust5" class="cluster">
<title>cluster_HomePageModule_imports</title>
<polygon fill="none" stroke="black" points="16,-40.8 16,-92.8 198,-92.8 198,-40.8 16,-40.8"/>
</g>
<!-- HomePage -->
<g id="node1" class="node">
<title>HomePage</title>
<polygon fill="#ffffb3" stroke="black" points="455.92,-84.8 378.08,-84.8 378.08,-48.8 455.92,-48.8 455.92,-84.8"/>
<text text-anchor="middle" x="417" y="-62.6" font-family="Times,serif" font-size="14.00">HomePage</text>
</g>
<!-- HomePageModule -->
<g id="node3" class="node">
<title>HomePageModule</title>
<polygon fill="#8dd3c7" stroke="black" points="347.47,-149.8 344.47,-153.8 323.47,-153.8 320.47,-149.8 226.53,-149.8 226.53,-113.8 347.47,-113.8 347.47,-149.8"/>
<text text-anchor="middle" x="287" y="-127.6" font-family="Times,serif" font-size="14.00">HomePageModule</text>
</g>
<!-- HomePage&#45;&gt;HomePageModule -->
<g id="edge1" class="edge">
<title>HomePage&#45;&gt;HomePageModule</title>
<path fill="none" stroke="black" d="M417,-84.91C417,-104.14 417,-131.8 417,-131.8 417,-131.8 357.81,-131.8 357.81,-131.8"/>
<polygon fill="black" stroke="black" points="357.81,-128.3 347.81,-131.8 357.81,-135.3 357.81,-128.3"/>
</g>
<!-- ProfilMenuComponent -->
<g id="node2" class="node">
<title>ProfilMenuComponent</title>
<polygon fill="#ffffb3" stroke="black" points="359.88,-84.8 214.12,-84.8 214.12,-48.8 359.88,-48.8 359.88,-84.8"/>
<text text-anchor="middle" x="287" y="-62.6" font-family="Times,serif" font-size="14.00">ProfilMenuComponent</text>
</g>
<!-- ProfilMenuComponent&#45;&gt;HomePageModule -->
<g id="edge2" class="edge">
<title>ProfilMenuComponent&#45;&gt;HomePageModule</title>
<path fill="none" stroke="black" d="M287,-84.91C287,-84.91 287,-103.79 287,-103.79"/>
<polygon fill="black" stroke="black" points="283.5,-103.79 287,-113.79 290.5,-103.79 283.5,-103.79"/>
</g>
<!-- HomePageRoutingModule -->
<g id="node4" class="node">
<title>HomePageRoutingModule</title>
<polygon fill="#8dd3c7" stroke="black" points="190.09,-84.8 187.09,-88.8 166.09,-88.8 163.09,-84.8 23.91,-84.8 23.91,-48.8 190.09,-48.8 190.09,-84.8"/>
<text text-anchor="middle" x="107" y="-62.6" font-family="Times,serif" font-size="14.00">HomePageRoutingModule</text>
</g>
<!-- HomePageRoutingModule&#45;&gt;HomePageModule -->
<g id="edge3" class="edge">
<title>HomePageRoutingModule&#45;&gt;HomePageModule</title>
<path fill="none" stroke="black" d="M107,-84.91C107,-104.14 107,-131.8 107,-131.8 107,-131.8 216.31,-131.8 216.31,-131.8"/>
<polygon fill="black" stroke="black" points="216.31,-135.3 226.31,-131.8 216.31,-128.3 216.31,-135.3"/>
</g>
</g>
</svg>
