<?xml version="1.0" encoding="UTF-8" standalone="no"?>
<!DOCTYPE svg PUBLIC "-//W3C//DTD SVG 1.1//EN"
 "http://www.w3.org/Graphics/SVG/1.1/DTD/svg11.dtd">
<!-- Generated by graphviz version 2.47.3 (20210619.1520)
 -->
<!-- Title: dependencies Pages: 1 -->
<svg width="392pt" height="174pt"
 viewBox="0.00 0.00 392.00 173.80" xmlns="http://www.w3.org/2000/svg" xmlns:xlink="http://www.w3.org/1999/xlink">
<g id="graph0" class="graph" transform="scale(1 1) rotate(0) translate(4 169.8)">
<title>dependencies</title>
<polygon fill="white" stroke="transparent" points="-4,4 -4,-169.8 388,-169.8 388,4 -4,4"/>
<text text-anchor="middle" x="192" y="-8.2" font-family="sans-serif" font-size="14.00">dependencies</text>
<g id="clust1" class="cluster">
<title>cluster_ExperiencesPageModule</title>
<polygon fill="none" stroke="black" stroke-dasharray="1,5" points="8,-32.8 8,-157.8 376,-157.8 376,-32.8 8,-32.8"/>
</g>
<g id="clust4" class="cluster">
<title>cluster_ExperiencesPageModule_imports</title>
<polygon fill="none" stroke="black" points="152,-40.8 152,-92.8 368,-92.8 368,-40.8 152,-40.8"/>
</g>
<g id="clust2" class="cluster">
<title>cluster_ExperiencesPageModule_declarations</title>
<polygon fill="none" stroke="black" points="16,-40.8 16,-92.8 144,-92.8 144,-40.8 16,-40.8"/>
</g>
<!-- ExperiencesPage -->
<g id="node1" class="node">
<title>ExperiencesPage</title>
<polygon fill="#ffffb3" stroke="black" points="135.62,-84.8 24.38,-84.8 24.38,-48.8 135.62,-48.8 135.62,-84.8"/>
<text text-anchor="middle" x="80" y="-62.6" font-family="Times,serif" font-size="14.00">ExperiencesPage</text>
</g>
<!-- ExperiencesPageModule -->
<g id="node2" class="node">
<title>ExperiencesPageModule</title>
<polygon fill="#8dd3c7" stroke="black" points="254.67,-149.8 251.67,-153.8 230.67,-153.8 227.67,-149.8 99.33,-149.8 99.33,-113.8 254.67,-113.8 254.67,-149.8"/>
<text text-anchor="middle" x="177" y="-127.6" font-family="Times,serif" font-size="14.00">ExperiencesPageModule</text>
</g>
<!-- ExperiencesPage&#45;&gt;ExperiencesPageModule -->
<g id="edge1" class="edge">
<title>ExperiencesPage&#45;&gt;ExperiencesPageModule</title>
<path fill="none" stroke="black" d="M117.61,-84.91C117.61,-84.91 117.61,-103.79 117.61,-103.79"/>
<polygon fill="black" stroke="black" points="114.11,-103.79 117.61,-113.79 121.11,-103.79 114.11,-103.79"/>
</g>
<!-- ExperiencesPageRoutingModule -->
<g id="node3" class="node">
<title>ExperiencesPageRoutingModule</title>
<polygon fill="#8dd3c7" stroke="black" points="360.29,-84.8 357.29,-88.8 336.29,-88.8 333.29,-84.8 159.71,-84.8 159.71,-48.8 360.29,-48.8 360.29,-84.8"/>
<text text-anchor="middle" x="260" y="-62.6" font-family="Times,serif" font-size="14.00">ExperiencesPageRoutingModule</text>
</g>
<!-- ExperiencesPageRoutingModule&#45;&gt;ExperiencesPageModule -->
<g id="edge2" class="edge">
<title>ExperiencesPageRoutingModule&#45;&gt;ExperiencesPageModule</title>
<path fill="none" stroke="black" d="M207.22,-84.91C207.22,-84.91 207.22,-103.79 207.22,-103.79"/>
<polygon fill="black" stroke="black" points="203.72,-103.79 207.22,-113.79 210.72,-103.79 203.72,-103.79"/>
</g>
</g>
</svg>
