<?xml version="1.0" encoding="UTF-8" standalone="no"?>
<!DOCTYPE svg PUBLIC "-//W3C//DTD SVG 1.1//EN"
 "http://www.w3.org/Graphics/SVG/1.1/DTD/svg11.dtd">
<!-- Generated by graphviz version 2.47.3 (20210619.1520)
 -->
<!-- Title: dependencies Pages: 1 -->
<svg width="564pt" height="174pt"
 viewBox="0.00 0.00 564.00 173.80" xmlns="http://www.w3.org/2000/svg" xmlns:xlink="http://www.w3.org/1999/xlink">
<g id="graph0" class="graph" transform="scale(1 1) rotate(0) translate(4 169.8)">
<title>dependencies</title>
<polygon fill="white" stroke="transparent" points="-4,4 -4,-169.8 560,-169.8 560,4 -4,4"/>
<text text-anchor="middle" x="278" y="-8.2" font-family="sans-serif" font-size="14.00">dependencies</text>
<g id="clust1" class="cluster">
<title>cluster_ExperiencesAddFormulairePageModule</title>
<polygon fill="none" stroke="black" stroke-dasharray="1,5" points="8,-32.8 8,-157.8 548,-157.8 548,-32.8 8,-32.8"/>
</g>
<g id="clust4" class="cluster">
<title>cluster_ExperiencesAddFormulairePageModule_imports</title>
<polygon fill="none" stroke="black" points="238,-40.8 238,-92.8 540,-92.8 540,-40.8 238,-40.8"/>
</g>
<g id="clust2" class="cluster">
<title>cluster_ExperiencesAddFormulairePageModule_declarations</title>
<polygon fill="none" stroke="black" points="16,-40.8 16,-92.8 230,-92.8 230,-40.8 16,-40.8"/>
</g>
<!-- ExperiencesAddFormulairePage -->
<g id="node1" class="node">
<title>ExperiencesAddFormulairePage</title>
<polygon fill="#ffffb3" stroke="black" points="221.93,-84.8 24.07,-84.8 24.07,-48.8 221.93,-48.8 221.93,-84.8"/>
<text text-anchor="middle" x="123" y="-62.6" font-family="Times,serif" font-size="14.00">ExperiencesAddFormulairePage</text>
</g>
<!-- ExperiencesAddFormulairePageModule -->
<g id="node2" class="node">
<title>ExperiencesAddFormulairePageModule</title>
<polygon fill="#8dd3c7" stroke="black" points="383.98,-149.8 380.98,-153.8 359.98,-153.8 356.98,-149.8 142.02,-149.8 142.02,-113.8 383.98,-113.8 383.98,-149.8"/>
<text text-anchor="middle" x="263" y="-127.6" font-family="Times,serif" font-size="14.00">ExperiencesAddFormulairePageModule</text>
</g>
<!-- ExperiencesAddFormulairePage&#45;&gt;ExperiencesAddFormulairePageModule -->
<g id="edge1" class="edge">
<title>ExperiencesAddFormulairePage&#45;&gt;ExperiencesAddFormulairePageModule</title>
<path fill="none" stroke="black" d="M182.11,-84.91C182.11,-84.91 182.11,-103.79 182.11,-103.79"/>
<polygon fill="black" stroke="black" points="178.61,-103.79 182.11,-113.79 185.61,-103.79 178.61,-103.79"/>
</g>
<!-- ExperiencesAddFormulairePageRoutingModule -->
<g id="node3" class="node">
<title>ExperiencesAddFormulairePageRoutingModule</title>
<polygon fill="#8dd3c7" stroke="black" points="532.1,-84.8 529.1,-88.8 508.1,-88.8 505.1,-84.8 245.9,-84.8 245.9,-48.8 532.1,-48.8 532.1,-84.8"/>
<text text-anchor="middle" x="389" y="-62.6" font-family="Times,serif" font-size="14.00">ExperiencesAddFormulairePageRoutingModule</text>
</g>
<!-- ExperiencesAddFormulairePageRoutingModule&#45;&gt;ExperiencesAddFormulairePageModule -->
<g id="edge2" class="edge">
<title>ExperiencesAddFormulairePageRoutingModule&#45;&gt;ExperiencesAddFormulairePageModule</title>
<path fill="none" stroke="black" d="M314.72,-84.91C314.72,-84.91 314.72,-103.79 314.72,-103.79"/>
<polygon fill="black" stroke="black" points="311.22,-103.79 314.72,-113.79 318.22,-103.79 311.22,-103.79"/>
</g>
</g>
</svg>
