<?xml version="1.0" encoding="UTF-8" standalone="no"?>
<!DOCTYPE svg PUBLIC "-//W3C//DTD SVG 1.1//EN"
 "http://www.w3.org/Graphics/SVG/1.1/DTD/svg11.dtd">
<!-- Generated by graphviz version 2.47.3 (20210619.1520)
 -->
<!-- Title: dependencies Pages: 1 -->
<svg width="466pt" height="174pt"
 viewBox="0.00 0.00 466.00 173.80" xmlns="http://www.w3.org/2000/svg" xmlns:xlink="http://www.w3.org/1999/xlink">
<g id="graph0" class="graph" transform="scale(1 1) rotate(0) translate(4 169.8)">
<title>dependencies</title>
<polygon fill="white" stroke="transparent" points="-4,4 -4,-169.8 462,-169.8 462,4 -4,4"/>
<text text-anchor="middle" x="229" y="-8.2" font-family="sans-serif" font-size="14.00">dependencies</text>
<g id="clust1" class="cluster">
<title>cluster_ExperiencesOthersPageModule</title>
<polygon fill="none" stroke="black" stroke-dasharray="1,5" points="8,-32.8 8,-157.8 450,-157.8 450,-32.8 8,-32.8"/>
</g>
<g id="clust2" class="cluster">
<title>cluster_ExperiencesOthersPageModule_declarations</title>
<polygon fill="none" stroke="black" points="278,-40.8 278,-92.8 442,-92.8 442,-40.8 278,-40.8"/>
</g>
<g id="clust4" class="cluster">
<title>cluster_ExperiencesOthersPageModule_imports</title>
<polygon fill="none" stroke="black" points="16,-40.8 16,-92.8 270,-92.8 270,-40.8 16,-40.8"/>
</g>
<!-- ExperiencesOthersPage -->
<g id="node1" class="node">
<title>ExperiencesOthersPage</title>
<polygon fill="#ffffb3" stroke="black" points="434.44,-84.8 285.56,-84.8 285.56,-48.8 434.44,-48.8 434.44,-84.8"/>
<text text-anchor="middle" x="360" y="-62.6" font-family="Times,serif" font-size="14.00">ExperiencesOthersPage</text>
</g>
<!-- ExperiencesOthersPageModule -->
<g id="node2" class="node">
<title>ExperiencesOthersPageModule</title>
<polygon fill="#8dd3c7" stroke="black" points="340.49,-149.8 337.49,-153.8 316.49,-153.8 313.49,-149.8 147.51,-149.8 147.51,-113.8 340.49,-113.8 340.49,-149.8"/>
<text text-anchor="middle" x="244" y="-127.6" font-family="Times,serif" font-size="14.00">ExperiencesOthersPageModule</text>
</g>
<!-- ExperiencesOthersPage&#45;&gt;ExperiencesOthersPageModule -->
<g id="edge1" class="edge">
<title>ExperiencesOthersPage&#45;&gt;ExperiencesOthersPageModule</title>
<path fill="none" stroke="black" d="M312.89,-84.91C312.89,-84.91 312.89,-103.79 312.89,-103.79"/>
<polygon fill="black" stroke="black" points="309.39,-103.79 312.89,-113.79 316.39,-103.79 309.39,-103.79"/>
</g>
<!-- ExperiencesOthersPageRoutingModule -->
<g id="node3" class="node">
<title>ExperiencesOthersPageRoutingModule</title>
<polygon fill="#8dd3c7" stroke="black" points="261.6,-84.8 258.6,-88.8 237.6,-88.8 234.6,-84.8 24.4,-84.8 24.4,-48.8 261.6,-48.8 261.6,-84.8"/>
<text text-anchor="middle" x="143" y="-62.6" font-family="Times,serif" font-size="14.00">ExperiencesOthersPageRoutingModule</text>
</g>
<!-- ExperiencesOthersPageRoutingModule&#45;&gt;ExperiencesOthersPageModule -->
<g id="edge2" class="edge">
<title>ExperiencesOthersPageRoutingModule&#45;&gt;ExperiencesOthersPageModule</title>
<path fill="none" stroke="black" d="M204.78,-84.91C204.78,-84.91 204.78,-103.79 204.78,-103.79"/>
<polygon fill="black" stroke="black" points="201.28,-103.79 204.78,-113.79 208.28,-103.79 201.28,-103.79"/>
</g>
</g>
</svg>
