<?xml version="1.0" encoding="UTF-8" standalone="no"?>
<!DOCTYPE svg PUBLIC "-//W3C//DTD SVG 1.1//EN"
 "http://www.w3.org/Graphics/SVG/1.1/DTD/svg11.dtd">
<!-- Generated by graphviz version 2.47.3 (20210619.1520)
 -->
<!-- Title: dependencies Pages: 1 -->
<svg width="2916pt" height="247pt"
 viewBox="0.00 0.00 2916.00 246.80" xmlns="http://www.w3.org/2000/svg" xmlns:xlink="http://www.w3.org/1999/xlink">
<g id="graph0" class="graph" transform="scale(1 1) rotate(0) translate(4 242.8)">
<title>dependencies</title>
<polygon fill="white" stroke="transparent" points="-4,4 -4,-242.8 2912,-242.8 2912,4 -4,4"/>
<text text-anchor="middle" x="1454" y="-8.2" font-family="sans-serif" font-size="14.00">dependencies</text>
<g id="clust1" class="cluster">
<title>cluster_AppModule</title>
<polygon fill="none" stroke="black" stroke-dasharray="1,5" points="8,-32.8 8,-230.8 298,-230.8 298,-32.8 8,-32.8"/>
</g>
<g id="clust2" class="cluster">
<title>cluster_AppModule_declarations</title>
<polygon fill="none" stroke="black" points="168,-40.8 168,-92.8 290,-92.8 290,-40.8 168,-40.8"/>
</g>
<g id="clust4" class="cluster">
<title>cluster_AppModule_imports</title>
<polygon fill="none" stroke="black" points="16,-40.8 16,-92.8 160,-92.8 160,-40.8 16,-40.8"/>
</g>
<g id="clust6" class="cluster">
<title>cluster_AppModule_bootstrap</title>
<polygon fill="none" stroke="black" points="96,-170.8 96,-222.8 220,-222.8 220,-170.8 96,-170.8"/>
</g>
<g id="clust14" class="cluster">
<title>cluster_CompetencesPageModule</title>
<polygon fill="none" stroke="black" stroke-dasharray="1,5" points="306,-32.8 306,-157.8 688,-157.8 688,-32.8 306,-32.8"/>
</g>
<g id="clust15" class="cluster">
<title>cluster_CompetencesPageModule_declarations</title>
<polygon fill="none" stroke="black" points="546,-40.8 546,-92.8 680,-92.8 680,-40.8 546,-40.8"/>
</g>
<g id="clust17" class="cluster">
<title>cluster_CompetencesPageModule_imports</title>
<polygon fill="none" stroke="black" points="314,-40.8 314,-92.8 538,-92.8 538,-40.8 314,-40.8"/>
</g>
<g id="clust27" class="cluster">
<title>cluster_ExperiencesAddFormulairePageModule</title>
<polygon fill="none" stroke="black" stroke-dasharray="1,5" points="696,-32.8 696,-157.8 1236,-157.8 1236,-32.8 696,-32.8"/>
</g>
<g id="clust28" class="cluster">
<title>cluster_ExperiencesAddFormulairePageModule_declarations</title>
<polygon fill="none" stroke="black" points="1014,-40.8 1014,-92.8 1228,-92.8 1228,-40.8 1014,-40.8"/>
</g>
<g id="clust30" class="cluster">
<title>cluster_ExperiencesAddFormulairePageModule_imports</title>
<polygon fill="none" stroke="black" points="704,-40.8 704,-92.8 1006,-92.8 1006,-40.8 704,-40.8"/>
</g>
<g id="clust40" class="cluster">
<title>cluster_ExperiencesOthersPageModule</title>
<polygon fill="none" stroke="black" stroke-dasharray="1,5" points="1244,-32.8 1244,-157.8 1686,-157.8 1686,-32.8 1244,-32.8"/>
</g>
<g id="clust41" class="cluster">
<title>cluster_ExperiencesOthersPageModule_declarations</title>
<polygon fill="none" stroke="black" points="1514,-40.8 1514,-92.8 1678,-92.8 1678,-40.8 1514,-40.8"/>
</g>
<g id="clust43" class="cluster">
<title>cluster_ExperiencesOthersPageModule_imports</title>
<polygon fill="none" stroke="black" points="1252,-40.8 1252,-92.8 1506,-92.8 1506,-40.8 1252,-40.8"/>
</g>
<g id="clust53" class="cluster">
<title>cluster_ExperiencesPageModule</title>
<polygon fill="none" stroke="black" stroke-dasharray="1,5" points="1694,-32.8 1694,-157.8 2062,-157.8 2062,-32.8 1694,-32.8"/>
</g>
<g id="clust54" class="cluster">
<title>cluster_ExperiencesPageModule_declarations</title>
<polygon fill="none" stroke="black" points="1926,-40.8 1926,-92.8 2054,-92.8 2054,-40.8 1926,-40.8"/>
</g>
<g id="clust56" class="cluster">
<title>cluster_ExperiencesPageModule_imports</title>
<polygon fill="none" stroke="black" points="1702,-40.8 1702,-92.8 1918,-92.8 1918,-40.8 1702,-40.8"/>
</g>
<g id="clust66" class="cluster">
<title>cluster_FormationsPageModule</title>
<polygon fill="none" stroke="black" stroke-dasharray="1,5" points="2070,-32.8 2070,-157.8 2428,-157.8 2428,-32.8 2070,-32.8"/>
</g>
<g id="clust67" class="cluster">
<title>cluster_FormationsPageModule_declarations</title>
<polygon fill="none" stroke="black" points="2298,-40.8 2298,-92.8 2420,-92.8 2420,-40.8 2298,-40.8"/>
</g>
<g id="clust69" class="cluster">
<title>cluster_FormationsPageModule_imports</title>
<polygon fill="none" stroke="black" points="2078,-40.8 2078,-92.8 2290,-92.8 2290,-40.8 2078,-40.8"/>
</g>
<g id="clust79" class="cluster">
<title>cluster_HomePageModule</title>
<polygon fill="none" stroke="black" stroke-dasharray="1,5" points="2436,-32.8 2436,-157.8 2900,-157.8 2900,-32.8 2436,-32.8"/>
</g>
<g id="clust80" class="cluster">
<title>cluster_HomePageModule_declarations</title>
<polygon fill="none" stroke="black" points="2634,-40.8 2634,-92.8 2892,-92.8 2892,-40.8 2634,-40.8"/>
</g>
<g id="clust83" class="cluster">
<title>cluster_HomePageModule_imports</title>
<polygon fill="none" stroke="black" points="2444,-40.8 2444,-92.8 2626,-92.8 2626,-40.8 2444,-40.8"/>
</g>
<!-- AppComponent -->
<g id="node1" class="node">
<title>AppComponent</title>
<polygon fill="#ffffb3" stroke="black" points="281.94,-84.8 176.06,-84.8 176.06,-48.8 281.94,-48.8 281.94,-84.8"/>
<text text-anchor="middle" x="229" y="-62.6" font-family="Times,serif" font-size="14.00">AppComponent</text>
</g>
<!-- AppModule -->
<g id="node2" class="node">
<title>AppModule</title>
<polygon fill="#8dd3c7" stroke="black" points="199.66,-149.8 196.66,-153.8 175.66,-153.8 172.66,-149.8 116.34,-149.8 116.34,-113.8 199.66,-113.8 199.66,-149.8"/>
<text text-anchor="middle" x="158" y="-127.6" font-family="Times,serif" font-size="14.00">AppModule</text>
</g>
<!-- AppComponent&#45;&gt;AppModule -->
<g id="edge1" class="edge">
<title>AppComponent&#45;&gt;AppModule</title>
<path fill="none" stroke="black" d="M188.05,-84.91C188.05,-84.91 188.05,-103.79 188.05,-103.79"/>
<polygon fill="black" stroke="black" points="184.55,-103.79 188.05,-113.79 191.55,-103.79 184.55,-103.79"/>
</g>
<!-- AppComponent  -->
<g id="node4" class="node">
<title>AppComponent </title>
<polygon fill="#80b1d3" stroke="black" points="212.44,-214.8 103.56,-214.8 103.56,-178.8 212.44,-178.8 212.44,-214.8"/>
<text text-anchor="middle" x="158" y="-192.6" font-family="Times,serif" font-size="14.00">AppComponent </text>
</g>
<!-- AppModule&#45;&gt;AppComponent  -->
<g id="edge3" class="edge">
<title>AppModule&#45;&gt;AppComponent </title>
<path fill="none" stroke="black" stroke-dasharray="1,5" d="M158,-149.91C158,-149.91 158,-168.79 158,-168.79"/>
<polygon fill="black" stroke="black" points="154.5,-168.79 158,-178.79 161.5,-168.79 154.5,-168.79"/>
</g>
<!-- AppRoutingModule -->
<g id="node3" class="node">
<title>AppRoutingModule</title>
<polygon fill="#8dd3c7" stroke="black" points="152.27,-84.8 149.27,-88.8 128.27,-88.8 125.27,-84.8 23.73,-84.8 23.73,-48.8 152.27,-48.8 152.27,-84.8"/>
<text text-anchor="middle" x="88" y="-62.6" font-family="Times,serif" font-size="14.00">AppRoutingModule</text>
</g>
<!-- AppRoutingModule&#45;&gt;AppModule -->
<g id="edge2" class="edge">
<title>AppRoutingModule&#45;&gt;AppModule</title>
<path fill="none" stroke="black" d="M134.28,-84.91C134.28,-84.91 134.28,-103.79 134.28,-103.79"/>
<polygon fill="black" stroke="black" points="130.78,-103.79 134.28,-113.79 137.78,-103.79 130.78,-103.79"/>
</g>
<!-- CompetencesPage -->
<g id="node5" class="node">
<title>CompetencesPage</title>
<polygon fill="#ffffb3" stroke="black" points="672.13,-84.8 553.87,-84.8 553.87,-48.8 672.13,-48.8 672.13,-84.8"/>
<text text-anchor="middle" x="613" y="-62.6" font-family="Times,serif" font-size="14.00">CompetencesPage</text>
</g>
<!-- CompetencesPageModule -->
<g id="node6" class="node">
<title>CompetencesPageModule</title>
<polygon fill="#8dd3c7" stroke="black" points="593.18,-149.8 590.18,-153.8 569.18,-153.8 566.18,-149.8 430.82,-149.8 430.82,-113.8 593.18,-113.8 593.18,-149.8"/>
<text text-anchor="middle" x="512" y="-127.6" font-family="Times,serif" font-size="14.00">CompetencesPageModule</text>
</g>
<!-- CompetencesPage&#45;&gt;CompetencesPageModule -->
<g id="edge4" class="edge">
<title>CompetencesPage&#45;&gt;CompetencesPageModule</title>
<path fill="none" stroke="black" d="M573.39,-84.91C573.39,-84.91 573.39,-103.79 573.39,-103.79"/>
<polygon fill="black" stroke="black" points="569.89,-103.79 573.39,-113.79 576.89,-103.79 569.89,-103.79"/>
</g>
<!-- CompetencesPageRoutingModule -->
<g id="node7" class="node">
<title>CompetencesPageRoutingModule</title>
<polygon fill="#8dd3c7" stroke="black" points="529.8,-84.8 526.8,-88.8 505.8,-88.8 502.8,-84.8 322.2,-84.8 322.2,-48.8 529.8,-48.8 529.8,-84.8"/>
<text text-anchor="middle" x="426" y="-62.6" font-family="Times,serif" font-size="14.00">CompetencesPageRoutingModule</text>
</g>
<!-- CompetencesPageRoutingModule&#45;&gt;CompetencesPageModule -->
<g id="edge5" class="edge">
<title>CompetencesPageRoutingModule&#45;&gt;CompetencesPageModule</title>
<path fill="none" stroke="black" d="M480.28,-84.91C480.28,-84.91 480.28,-103.79 480.28,-103.79"/>
<polygon fill="black" stroke="black" points="476.78,-103.79 480.28,-113.79 483.78,-103.79 476.78,-103.79"/>
</g>
<!-- ExperiencesAddFormulairePage -->
<g id="node8" class="node">
<title>ExperiencesAddFormulairePage</title>
<polygon fill="#ffffb3" stroke="black" points="1219.93,-84.8 1022.07,-84.8 1022.07,-48.8 1219.93,-48.8 1219.93,-84.8"/>
<text text-anchor="middle" x="1121" y="-62.6" font-family="Times,serif" font-size="14.00">ExperiencesAddFormulairePage</text>
</g>
<!-- ExperiencesAddFormulairePageModule -->
<g id="node9" class="node">
<title>ExperiencesAddFormulairePageModule</title>
<polygon fill="#8dd3c7" stroke="black" points="1101.98,-149.8 1098.98,-153.8 1077.98,-153.8 1074.98,-149.8 860.02,-149.8 860.02,-113.8 1101.98,-113.8 1101.98,-149.8"/>
<text text-anchor="middle" x="981" y="-127.6" font-family="Times,serif" font-size="14.00">ExperiencesAddFormulairePageModule</text>
</g>
<!-- ExperiencesAddFormulairePage&#45;&gt;ExperiencesAddFormulairePageModule -->
<g id="edge6" class="edge">
<title>ExperiencesAddFormulairePage&#45;&gt;ExperiencesAddFormulairePageModule</title>
<path fill="none" stroke="black" d="M1061.89,-84.91C1061.89,-84.91 1061.89,-103.79 1061.89,-103.79"/>
<polygon fill="black" stroke="black" points="1058.39,-103.79 1061.89,-113.79 1065.39,-103.79 1058.39,-103.79"/>
</g>
<!-- ExperiencesAddFormulairePageRoutingModule -->
<g id="node10" class="node">
<title>ExperiencesAddFormulairePageRoutingModule</title>
<polygon fill="#8dd3c7" stroke="black" points="998.1,-84.8 995.1,-88.8 974.1,-88.8 971.1,-84.8 711.9,-84.8 711.9,-48.8 998.1,-48.8 998.1,-84.8"/>
<text text-anchor="middle" x="855" y="-62.6" font-family="Times,serif" font-size="14.00">ExperiencesAddFormulairePageRoutingModule</text>
</g>
<!-- ExperiencesAddFormulairePageRoutingModule&#45;&gt;ExperiencesAddFormulairePageModule -->
<g id="edge7" class="edge">
<title>ExperiencesAddFormulairePageRoutingModule&#45;&gt;ExperiencesAddFormulairePageModule</title>
<path fill="none" stroke="black" d="M929.28,-84.91C929.28,-84.91 929.28,-103.79 929.28,-103.79"/>
<polygon fill="black" stroke="black" points="925.78,-103.79 929.28,-113.79 932.78,-103.79 925.78,-103.79"/>
</g>
<!-- ExperiencesOthersPage -->
<g id="node11" class="node">
<title>ExperiencesOthersPage</title>
<polygon fill="#ffffb3" stroke="black" points="1670.44,-84.8 1521.56,-84.8 1521.56,-48.8 1670.44,-48.8 1670.44,-84.8"/>
<text text-anchor="middle" x="1596" y="-62.6" font-family="Times,serif" font-size="14.00">ExperiencesOthersPage</text>
</g>
<!-- ExperiencesOthersPageModule -->
<g id="node12" class="node">
<title>ExperiencesOthersPageModule</title>
<polygon fill="#8dd3c7" stroke="black" points="1576.49,-149.8 1573.49,-153.8 1552.49,-153.8 1549.49,-149.8 1383.51,-149.8 1383.51,-113.8 1576.49,-113.8 1576.49,-149.8"/>
<text text-anchor="middle" x="1480" y="-127.6" font-family="Times,serif" font-size="14.00">ExperiencesOthersPageModule</text>
</g>
<!-- ExperiencesOthersPage&#45;&gt;ExperiencesOthersPageModule -->
<g id="edge8" class="edge">
<title>ExperiencesOthersPage&#45;&gt;ExperiencesOthersPageModule</title>
<path fill="none" stroke="black" d="M1548.89,-84.91C1548.89,-84.91 1548.89,-103.79 1548.89,-103.79"/>
<polygon fill="black" stroke="black" points="1545.39,-103.79 1548.89,-113.79 1552.39,-103.79 1545.39,-103.79"/>
</g>
<!-- ExperiencesOthersPageRoutingModule -->
<g id="node13" class="node">
<title>ExperiencesOthersPageRoutingModule</title>
<polygon fill="#8dd3c7" stroke="black" points="1497.6,-84.8 1494.6,-88.8 1473.6,-88.8 1470.6,-84.8 1260.4,-84.8 1260.4,-48.8 1497.6,-48.8 1497.6,-84.8"/>
<text text-anchor="middle" x="1379" y="-62.6" font-family="Times,serif" font-size="14.00">ExperiencesOthersPageRoutingModule</text>
</g>
<!-- ExperiencesOthersPageRoutingModule&#45;&gt;ExperiencesOthersPageModule -->
<g id="edge9" class="edge">
<title>ExperiencesOthersPageRoutingModule&#45;&gt;ExperiencesOthersPageModule</title>
<path fill="none" stroke="black" d="M1440.78,-84.91C1440.78,-84.91 1440.78,-103.79 1440.78,-103.79"/>
<polygon fill="black" stroke="black" points="1437.28,-103.79 1440.78,-113.79 1444.28,-103.79 1437.28,-103.79"/>
</g>
<!-- ExperiencesPage -->
<g id="node14" class="node">
<title>ExperiencesPage</title>
<polygon fill="#ffffb3" stroke="black" points="2045.62,-84.8 1934.38,-84.8 1934.38,-48.8 2045.62,-48.8 2045.62,-84.8"/>
<text text-anchor="middle" x="1990" y="-62.6" font-family="Times,serif" font-size="14.00">ExperiencesPage</text>
</g>
<!-- ExperiencesPageModule -->
<g id="node15" class="node">
<title>ExperiencesPageModule</title>
<polygon fill="#8dd3c7" stroke="black" points="1970.67,-149.8 1967.67,-153.8 1946.67,-153.8 1943.67,-149.8 1815.33,-149.8 1815.33,-113.8 1970.67,-113.8 1970.67,-149.8"/>
<text text-anchor="middle" x="1893" y="-127.6" font-family="Times,serif" font-size="14.00">ExperiencesPageModule</text>
</g>
<!-- ExperiencesPage&#45;&gt;ExperiencesPageModule -->
<g id="edge10" class="edge">
<title>ExperiencesPage&#45;&gt;ExperiencesPageModule</title>
<path fill="none" stroke="black" d="M1952.39,-84.91C1952.39,-84.91 1952.39,-103.79 1952.39,-103.79"/>
<polygon fill="black" stroke="black" points="1948.89,-103.79 1952.39,-113.79 1955.89,-103.79 1948.89,-103.79"/>
</g>
<!-- ExperiencesPageRoutingModule -->
<g id="node16" class="node">
<title>ExperiencesPageRoutingModule</title>
<polygon fill="#8dd3c7" stroke="black" points="1910.29,-84.8 1907.29,-88.8 1886.29,-88.8 1883.29,-84.8 1709.71,-84.8 1709.71,-48.8 1910.29,-48.8 1910.29,-84.8"/>
<text text-anchor="middle" x="1810" y="-62.6" font-family="Times,serif" font-size="14.00">ExperiencesPageRoutingModule</text>
</g>
<!-- ExperiencesPageRoutingModule&#45;&gt;ExperiencesPageModule -->
<g id="edge11" class="edge">
<title>ExperiencesPageRoutingModule&#45;&gt;ExperiencesPageModule</title>
<path fill="none" stroke="black" d="M1862.78,-84.91C1862.78,-84.91 1862.78,-103.79 1862.78,-103.79"/>
<polygon fill="black" stroke="black" points="1859.28,-103.79 1862.78,-113.79 1866.28,-103.79 1859.28,-103.79"/>
</g>
<!-- FormationsPage -->
<g id="node17" class="node">
<title>FormationsPage</title>
<polygon fill="#ffffb3" stroke="black" points="2412.49,-84.8 2305.51,-84.8 2305.51,-48.8 2412.49,-48.8 2412.49,-84.8"/>
<text text-anchor="middle" x="2359" y="-62.6" font-family="Times,serif" font-size="14.00">FormationsPage</text>
</g>
<!-- FormationsPageModule -->
<g id="node18" class="node">
<title>FormationsPageModule</title>
<polygon fill="#8dd3c7" stroke="black" points="2339.04,-149.8 2336.04,-153.8 2315.04,-153.8 2312.04,-149.8 2188.96,-149.8 2188.96,-113.8 2339.04,-113.8 2339.04,-149.8"/>
<text text-anchor="middle" x="2264" y="-127.6" font-family="Times,serif" font-size="14.00">FormationsPageModule</text>
</g>
<!-- FormationsPage&#45;&gt;FormationsPageModule -->
<g id="edge12" class="edge">
<title>FormationsPage&#45;&gt;FormationsPageModule</title>
<path fill="none" stroke="black" d="M2322.39,-84.91C2322.39,-84.91 2322.39,-103.79 2322.39,-103.79"/>
<polygon fill="black" stroke="black" points="2318.89,-103.79 2322.39,-113.79 2325.89,-103.79 2318.89,-103.79"/>
</g>
<!-- FormationsPageRoutingModule -->
<g id="node19" class="node">
<title>FormationsPageRoutingModule</title>
<polygon fill="#8dd3c7" stroke="black" points="2281.65,-84.8 2278.65,-88.8 2257.65,-88.8 2254.65,-84.8 2086.35,-84.8 2086.35,-48.8 2281.65,-48.8 2281.65,-84.8"/>
<text text-anchor="middle" x="2184" y="-62.6" font-family="Times,serif" font-size="14.00">FormationsPageRoutingModule</text>
</g>
<!-- FormationsPageRoutingModule&#45;&gt;FormationsPageModule -->
<g id="edge13" class="edge">
<title>FormationsPageRoutingModule&#45;&gt;FormationsPageModule</title>
<path fill="none" stroke="black" d="M2235.28,-84.91C2235.28,-84.91 2235.28,-103.79 2235.28,-103.79"/>
<polygon fill="black" stroke="black" points="2231.78,-103.79 2235.28,-113.79 2238.78,-103.79 2231.78,-103.79"/>
</g>
<!-- HomePage -->
<g id="node20" class="node">
<title>HomePage</title>
<polygon fill="#ffffb3" stroke="black" points="2883.92,-84.8 2806.08,-84.8 2806.08,-48.8 2883.92,-48.8 2883.92,-84.8"/>
<text text-anchor="middle" x="2845" y="-62.6" font-family="Times,serif" font-size="14.00">HomePage</text>
</g>
<!-- HomePageModule -->
<g id="node22" class="node">
<title>HomePageModule</title>
<polygon fill="#8dd3c7" stroke="black" points="2775.47,-149.8 2772.47,-153.8 2751.47,-153.8 2748.47,-149.8 2654.53,-149.8 2654.53,-113.8 2775.47,-113.8 2775.47,-149.8"/>
<text text-anchor="middle" x="2715" y="-127.6" font-family="Times,serif" font-size="14.00">HomePageModule</text>
</g>
<!-- HomePage&#45;&gt;HomePageModule -->
<g id="edge14" class="edge">
<title>HomePage&#45;&gt;HomePageModule</title>
<path fill="none" stroke="black" d="M2845,-84.91C2845,-104.14 2845,-131.8 2845,-131.8 2845,-131.8 2785.81,-131.8 2785.81,-131.8"/>
<polygon fill="black" stroke="black" points="2785.81,-128.3 2775.81,-131.8 2785.81,-135.3 2785.81,-128.3"/>
</g>
<!-- ProfilMenuComponent -->
<g id="node21" class="node">
<title>ProfilMenuComponent</title>
<polygon fill="#ffffb3" stroke="black" points="2787.88,-84.8 2642.12,-84.8 2642.12,-48.8 2787.88,-48.8 2787.88,-84.8"/>
<text text-anchor="middle" x="2715" y="-62.6" font-family="Times,serif" font-size="14.00">ProfilMenuComponent</text>
</g>
<!-- ProfilMenuComponent&#45;&gt;HomePageModule -->
<g id="edge15" class="edge">
<title>ProfilMenuComponent&#45;&gt;HomePageModule</title>
<path fill="none" stroke="black" d="M2715,-84.91C2715,-84.91 2715,-103.79 2715,-103.79"/>
<polygon fill="black" stroke="black" points="2711.5,-103.79 2715,-113.79 2718.5,-103.79 2711.5,-103.79"/>
</g>
<!-- HomePageRoutingModule -->
<g id="node23" class="node">
<title>HomePageRoutingModule</title>
<polygon fill="#8dd3c7" stroke="black" points="2618.09,-84.8 2615.09,-88.8 2594.09,-88.8 2591.09,-84.8 2451.91,-84.8 2451.91,-48.8 2618.09,-48.8 2618.09,-84.8"/>
<text text-anchor="middle" x="2535" y="-62.6" font-family="Times,serif" font-size="14.00">HomePageRoutingModule</text>
</g>
<!-- HomePageRoutingModule&#45;&gt;HomePageModule -->
<g id="edge16" class="edge">
<title>HomePageRoutingModule&#45;&gt;HomePageModule</title>
<path fill="none" stroke="black" d="M2535,-84.91C2535,-104.14 2535,-131.8 2535,-131.8 2535,-131.8 2644.31,-131.8 2644.31,-131.8"/>
<polygon fill="black" stroke="black" points="2644.31,-135.3 2654.31,-131.8 2644.31,-128.3 2644.31,-135.3"/>
</g>
</g>
</svg>
